<svg id="Layer_1" data-name="Layer 1" xmlns="http://www.w3.org/2000/svg" viewBox="0 0 66.86 70.09"><defs><style>.cls-1{fill:#fff;}</style></defs><path class="cls-1" d="M34.1,37.67A4.38,4.38,0,0,0,35.32,40c1.21,7.21,8.75,13.36,14.81,13.1,7.7-.33,13.17-7.45,14.39-13.1a5.37,5.37,0,0,0,1.29-2.54c.33-1.29.68-3.24-.23-4.28l-.46-.37c.87-2.68,2.77-7.47-2-11.77-2.56-2.34-6.13-3.51-9.36-4.43-9.51-2.73-16.23,1.1-19.34,7.46-.22.45-1.67,3.31.09,8.74a1.83,1.83,0,0,0-.46.37C33.17,34.18,33.76,36.38,34.1,37.67Z" transform="translate(-16.49 -15.69)"/><path class="cls-1" d="M83.32,77.33c-.26-5-.59-12.83-5.64-19.26a11.24,11.24,0,0,0-4.86-2.81s-7.42-1.94-10.83-4l-1.56.91.17,8.71L51.23,82.3a1.48,1.48,0,0,1-2.62,0L39.25,60.85s.17-8.68.17-8.71-1.57-.91-1.57-.91c-3.41,2.09-10.83,4-10.83,4a11.24,11.24,0,0,0-4.86,2.81c-5.05,6.43-5.38,14.3-5.65,19.26-.18,3.43.66,4.71,1.71,5.07,13.07,4.5,50.32,4.5,63.39,0C82.67,82,83.5,80.76,83.32,77.33Z" transform="translate(-16.49 -15.69)"/><path class="cls-1" d="M50.25,55.84h-.42a14.39,14.39,0,0,1-4.08-.63l3.71,4.88-3.33,2.76,3.43,17.86a.35.35,0,0,0,.36.27.36.36,0,0,0,.37-.27l3.43-17.86L50.38,60.1,54,55.29A18.32,18.32,0,0,1,50.25,55.84Z" transform="translate(-16.49 -15.69)"/></svg>