<svg id="Layer_1" data-name="Layer 1" xmlns="http://www.w3.org/2000/svg" viewBox="0 0 100 100"><defs><style>.cls-1{fill:#fff;stroke:#fff;stroke-miterlimit:10;stroke-width:4px;}</style></defs><path class="cls-1" d="M55,87H52c-10.73,0-17.22-.06-23.06-4.26-8.1-5.82-12-15.23-12-28.77,0-2.21,0-4.21-.05-6-.14-11.16-.2-16.26,6.32-24.58C30.83,13.55,53,17.78,53.92,18l.13,0c.17.05,16.88,5.08,17.34,22.16a3.72,3.72,0,0,0,1.1,2.11,4.33,4.33,0,0,0,4.69.39l.23-.11.26,0a5,5,0,0,1,5.41,4.23c.26,1.81.47,4.46.6,7.88a24.33,24.33,0,0,1-.09,3.67c0,.05-.12,1.22-.37,2.45C79.81,78,71.15,83.85,70.78,84.09,66.74,86.74,62.57,87,55,87ZM42.11,19.9c-6.18,0-13.27,1.05-16.6,5.3-5.87,7.49-5.81,11.63-5.68,22.69,0,1.83.05,3.83.05,6.06,0,12.5,3.53,21.12,10.79,26.34C35.73,83.93,41.51,83.94,52,84h.48c8.63,0,13,0,16.67-2.4.07,0,8-5.52,11.14-21.41.21-1.08.32-2.16.32-2.17a21.32,21.32,0,0,0,.09-3.25c-.14-3.32-.33-5.86-.58-7.56a2,2,0,0,0-1.94-1.7,7.18,7.18,0,0,1-7.69-1,6.73,6.73,0,0,1-2.07-4v-.19c-.34-14.58-13.93-19.06-15.12-19.43A67.65,67.65,0,0,0,42.11,19.9Z"/><path class="cls-1" d="M50.45,44.49H38.71a5.26,5.26,0,0,1-5.25-5.25V38.05a5.26,5.26,0,0,1,5.25-5.25H50.45a5.25,5.25,0,0,1,5.25,5.25v1.19A5.26,5.26,0,0,1,50.45,44.49ZM38.71,35.8a2.25,2.25,0,0,0-2.25,2.25v1.19a2.25,2.25,0,0,0,2.25,2.25H50.45a2.25,2.25,0,0,0,2.25-2.25V38.05a2.25,2.25,0,0,0-2.25-2.25Z"/><path class="cls-1" d="M50.45,46H38.71A6.76,6.76,0,0,1,32,39.24V38.05a6.76,6.76,0,0,1,6.75-6.75H50.45a6.75,6.75,0,0,1,6.75,6.75v1.19A6.75,6.75,0,0,1,50.45,46ZM35,39.24A3.76,3.76,0,0,0,38.71,43H50.45a3.76,3.76,0,0,0,3.75-3.75v0A3.76,3.76,0,0,1,50.45,43H38.71A3.76,3.76,0,0,1,35,39.24Zm3.75-1.94a.76.76,0,0,0-.75.75v1.19a.76.76,0,0,0,.75.75H50.45a.75.75,0,0,0,.75-.75V38.05a.75.75,0,0,0-.75-.75Z"/><path class="cls-1" d="M62.09,66.46H38.43a5.25,5.25,0,0,1-5.25-5.25V60a5.26,5.26,0,0,1,5.25-5.25H62.09A5.26,5.26,0,0,1,67.34,60v1.19A5.26,5.26,0,0,1,62.09,66.46ZM38.43,57.77A2.25,2.25,0,0,0,36.18,60v1.19a2.25,2.25,0,0,0,2.25,2.25H62.09a2.25,2.25,0,0,0,2.25-2.25V60a2.25,2.25,0,0,0-2.25-2.25Z"/><path class="cls-1" d="M62.09,68H38.43a6.75,6.75,0,0,1-6.75-6.75V60a6.75,6.75,0,0,1,6.75-6.75H62.09A6.76,6.76,0,0,1,68.84,60v1.19A6.76,6.76,0,0,1,62.09,68ZM34.68,61.21A3.75,3.75,0,0,0,38.43,65H62.09a3.76,3.76,0,0,0,3.75-3.75v0A3.76,3.76,0,0,1,62.09,65H38.43A3.75,3.75,0,0,1,34.68,61.21Zm3.75-1.94a.75.75,0,0,0-.75.75v1.19a.74.74,0,0,0,.75.75H62.09a.75.75,0,0,0,.75-.75V60a.76.76,0,0,0-.75-.75Z"/></svg>