<svg id="Layer_1" data-name="Layer 1" xmlns="http://www.w3.org/2000/svg" viewBox="0 0 100 100"><defs><style>.cls-1{fill:#fff;stroke:#fff;stroke-miterlimit:10;stroke-width:4px;}</style></defs><path class="cls-1" d="M88.31,83.18H12.06a6.13,6.13,0,0,1-6.12-6.13V34.8a6.13,6.13,0,0,1,6.12-6.12H88.31a6.13,6.13,0,0,1,6.12,6.12V77.05A6.13,6.13,0,0,1,88.31,83.18ZM12.06,31.68A3.12,3.12,0,0,0,8.94,34.8V77.05a3.13,3.13,0,0,0,3.12,3.13H88.31a3.13,3.13,0,0,0,3.12-3.13V34.8a3.12,3.12,0,0,0-3.12-3.12Z"/><path class="cls-1" d="M89.71,80.48l-2-.66a58.58,58.58,0,0,0-37,0l-2,.66V27.13c0-.36,0-.71,0-1.05-.05-1.78-.1-3.63,1.28-5.06,1.24-1.27,3.31-1.84,6.71-1.84H89.71ZM56.76,22.18c-3,0-4.14.51-4.56.94s-.47,1.41-.43,2.88c0,.37,0,.74,0,1.13V76.35a61.63,61.63,0,0,1,34.92,0V22.18Z"/><path class="cls-1" d="M10.87,80.5V19.18H42.53c3.29,0,5.3.55,6.5,1.8,1.36,1.4,1.29,3.23,1.23,5,0,.37,0,.76,0,1.16V80.5l-2-.69a53.92,53.92,0,0,0-35.38,0Zm3-58.32V76.33a56.82,56.82,0,0,1,33.37,0V27.13c0-.44,0-.86,0-1.27.06-1.43.06-2.33-.38-2.79s-1.47-.89-4.35-.89Z"/></svg>