<svg id="Layer_1" data-name="Layer 1" xmlns="http://www.w3.org/2000/svg" viewBox="0 0 980 979.4"><defs><style>.cls-1{fill:#fff;}</style></defs><path class="cls-1" d="M982.6,481.9,780.1,279.4a25.41,25.41,0,0,0-35.9,0l-40.9,40.9a25.41,25.41,0,0,0,0,35.9l89.3,89.3H385.4A25.44,25.44,0,0,0,360,470.9v57.9a25.44,25.44,0,0,0,25.4,25.4H792.3L703,643.7a25.41,25.41,0,0,0,0,35.9l40.9,40.9a25.41,25.41,0,0,0,35.9,0L941.5,558.8h0l40.9-40.9A25.35,25.35,0,0,0,982.6,481.9Z" transform="translate(-10 -10.3)"/><path class="cls-1" d="M633.7,10.3H86.3A76.29,76.29,0,0,0,10,86.6V913.4a76.29,76.29,0,0,0,76.3,76.3H633.8a76.29,76.29,0,0,0,76.3-76.3V806.1a25.44,25.44,0,0,0-25.4-25.4H629.6a25.44,25.44,0,0,0-25.4,25.4v40.8a38.12,38.12,0,0,1-38.1,37.6H153a38.09,38.09,0,0,1-38.1-38.1V152.7A38.09,38.09,0,0,1,153,114.6H566a38.12,38.12,0,0,1,38.1,37.6v42a25.44,25.44,0,0,0,25.4,25.4h55.1A25.44,25.44,0,0,0,710,194.2V86.6A76.35,76.35,0,0,0,633.7,10.3Z" transform="translate(-10 -10.3)"/></svg>